<svg width="16" height="16" viewBox="0 0 16 16" fill="none" xmlns="http://www.w3.org/2000/svg">
<path d="M8.35497 10.605C8.30849 10.6519 8.25319 10.6891 8.19226 10.7144C8.13133 10.7398 8.06598 10.7529 7.99997 10.7529C7.93396 10.7529 7.86861 10.7398 7.80768 10.7144C7.74675 10.6891 7.69145 10.6519 7.64497 10.605L5.14497 8.105C5.05082 8.01085 4.99792 7.88315 4.99792 7.75C4.99792 7.61685 5.05082 7.48915 5.14497 7.395C5.23912 7.30085 5.36682 7.24795 5.49997 7.24795C5.63312 7.24795 5.76082 7.30085 5.85497 7.395L7.49997 9.045V3C7.49997 2.86739 7.55265 2.74021 7.64642 2.64645C7.74019 2.55268 7.86736 2.5 7.99997 2.5C8.13258 2.5 8.25976 2.55268 8.35352 2.64645C8.44729 2.74021 8.49997 2.86739 8.49997 3V9.045L10.145 7.395C10.1915 7.34814 10.2468 7.31094 10.3077 7.28555C10.3686 7.26017 10.434 7.2471 10.5 7.2471C10.566 7.2471 10.6313 7.26017 10.6923 7.28555C10.7532 7.31094 10.8085 7.34814 10.855 7.395C10.9018 7.44148 10.939 7.49678 10.9644 7.55771C10.9898 7.61864 11.0029 7.68399 11.0029 7.75C11.0029 7.81601 10.9898 7.88136 10.9644 7.94229C10.939 8.00322 10.9018 8.05852 10.855 8.105L8.35497 10.605Z" fill="black"/>
<path d="M13 13.5H3C2.86739 13.5 2.74021 13.4473 2.64645 13.3536C2.55268 13.2598 2.5 13.1326 2.5 13C2.5 12.8674 2.55268 12.7402 2.64645 12.6464C2.74021 12.5527 2.86739 12.5 3 12.5H13C13.1326 12.5 13.2598 12.5527 13.3536 12.6464C13.4473 12.7402 13.5 12.8674 13.5 13C13.5 13.1326 13.4473 13.2598 13.3536 13.3536C13.2598 13.4473 13.1326 13.5 13 13.5Z" fill="black"/>
</svg>
