<svg width="4" height="4" viewBox="0 0 4 4" fill="none" xmlns="http://www.w3.org/2000/svg">
<path opacity="0.6" d="M3.88106 0.710583C3.9471 0.763942 3.98924 0.841347 3.99821 0.925774C4.00718 1.0102 3.98224 1.09473 3.92889 1.16077L2.24817 3.24166C2.21817 3.2788 2.18023 3.30876 2.13714 3.32934C2.09406 3.34991 2.04691 3.3606 1.99916 3.3606C1.95142 3.3606 1.90427 3.34991 1.86119 3.32934C1.8181 3.30876 1.78016 3.2788 1.75015 3.24166L0.0694406 1.16077C0.0169268 1.09465 -0.00733549 1.01046 0.00193717 0.926526C0.0112098 0.842596 0.0532664 0.765729 0.118949 0.712662C0.184631 0.659596 0.268619 0.634629 0.352623 0.643198C0.436628 0.651766 0.513845 0.693177 0.56746 0.758412L1.99916 2.53097L3.43087 0.758412C3.48423 0.692373 3.56163 0.650234 3.64606 0.641264C3.73049 0.632295 3.81502 0.657229 3.88106 0.710583Z" fill="black"/>
</svg>
