<svg width="16" height="16" viewBox="0 0 16 16" fill="none" xmlns="http://www.w3.org/2000/svg">
<g clip-path="url(#clip0_204_489)">
<path d="M8.61198 11.0601L6.1639 13.5082C6.1639 13.5082 6.1639 13.5083 6.16384 13.5083C6.16384 13.5083 6.16384 13.5083 6.16378 13.5083C5.15143 14.5207 3.50411 14.5208 2.49164 13.5083C2.00116 13.0179 1.73111 12.3657 1.73111 11.6722C1.73111 10.9787 2.00116 10.3267 2.49147 9.83625C2.49153 9.83619 2.49158 9.83614 2.49164 9.83608L4.93972 7.38794C5.27769 7.04992 5.27769 6.50185 4.93966 6.16388C4.60169 5.82591 4.05362 5.82591 3.71559 6.16388L1.26752 8.61201C1.26734 8.61218 1.26717 8.61242 1.267 8.61259C0.449973 9.4299 0 10.5165 0 11.6722C0 12.8282 0.450146 13.915 1.26758 14.7324C2.11132 15.5761 3.21952 15.998 4.32777 15.998C5.43603 15.998 6.54428 15.5761 7.38791 14.7324C7.38797 14.7324 7.38797 14.7323 7.38797 14.7323L9.83604 12.2842C10.174 11.9462 10.174 11.3981 9.83599 11.0601C9.49807 10.7221 8.95006 10.7221 8.61198 11.0601Z" fill="#9B9B9B"/>
<path d="M15.9999 4.32765C15.9999 3.17168 15.5497 2.08489 14.7323 1.26746C13.0448 -0.419911 10.2992 -0.419853 8.61193 1.26746C8.61187 1.26757 8.61175 1.26763 8.6117 1.26775L6.16368 3.71571C5.82565 4.05368 5.82565 4.6018 6.16368 4.93977C6.33275 5.10885 6.55422 5.19332 6.77574 5.19332C6.99721 5.19332 7.21879 5.10879 7.38774 4.93977L9.83576 2.49181C9.83582 2.4917 9.83594 2.49164 9.83605 2.49153C10.8484 1.47917 12.4957 1.47912 13.5082 2.49153C13.9986 2.98201 14.2688 3.63411 14.2688 4.32765C14.2688 5.02114 13.9987 5.67313 13.5084 6.16361L13.5082 6.16378L11.0601 8.61192C10.7221 8.94989 10.7221 9.49796 11.0602 9.83598C11.2292 10.005 11.4507 10.0895 11.6722 10.0895C11.8937 10.0895 12.1152 10.005 12.2842 9.83598L14.7323 7.38785C14.7325 7.38768 14.7327 7.38745 14.7328 7.38727C15.5499 6.56996 15.9999 5.48334 15.9999 4.32765Z" fill="#9B9B9B"/>
<path d="M4.94004 11.0601C5.10906 11.2291 5.33058 11.3136 5.55205 11.3136C5.77357 11.3136 5.9951 11.2291 6.16411 11.0601L11.0604 6.16382C11.3984 5.82585 11.3984 5.27778 11.0604 4.93976C10.7224 4.60179 10.1743 4.60179 9.83631 4.93976L4.94004 9.83597C4.60202 10.1741 4.60202 10.7221 4.94004 11.0601Z" fill="#9B9B9B"/>
</g>
<defs>
<clipPath id="clip0_204_489">
<rect width="16" height="16" fill="white"/>
</clipPath>
</defs>
</svg>
