<svg width="16" height="16" viewBox="0 0 16 16" fill="none" xmlns="http://www.w3.org/2000/svg">
<g opacity="0.8">
<path d="M4.78544 6.63278C5.80566 6.63278 6.63272 5.80573 6.63272 4.78551C6.63272 3.76528 5.80566 2.93823 4.78544 2.93823C3.76522 2.93823 2.93817 3.76528 2.93817 4.78551C2.93817 5.80573 3.76522 6.63278 4.78544 6.63278Z" fill="black"/>
<path d="M4.78544 13.0619C5.80566 13.0619 6.63272 12.2348 6.63272 11.2146C6.63272 10.1944 5.80566 9.36731 4.78544 9.36731C3.76522 9.36731 2.93817 10.1944 2.93817 11.2146C2.93817 12.2348 3.76522 13.0619 4.78544 13.0619Z" fill="black"/>
<path d="M11.2145 6.63278C12.2347 6.63278 13.0618 5.80573 13.0618 4.78551C13.0618 3.76528 12.2347 2.93823 11.2145 2.93823C10.1943 2.93823 9.36725 3.76528 9.36725 4.78551C9.36725 5.80573 10.1943 6.63278 11.2145 6.63278Z" fill="black"/>
<path d="M11.2145 13.0619C12.2347 13.0619 13.0618 12.2348 13.0618 11.2146C13.0618 10.1944 12.2347 9.36731 11.2145 9.36731C10.1943 9.36731 9.36725 10.1944 9.36725 11.2146C9.36725 12.2348 10.1943 13.0619 11.2145 13.0619Z" fill="black"/>
</g>
</svg>
