<svg width="8" height="8" viewBox="0 0 8 8" fill="none" xmlns="http://www.w3.org/2000/svg">
<path d="M6.22063 3.33764L2.55396 1.26897C2.43422 1.20054 2.29848 1.16505 2.16057 1.1661C2.02265 1.16715 1.88748 1.20472 1.76879 1.27497C1.65317 1.3411 1.5571 1.43666 1.49036 1.55194C1.42362 1.66721 1.38858 1.7981 1.38879 1.9313V6.06864C1.38858 6.20184 1.42362 6.33273 1.49036 6.44801C1.5571 6.56328 1.65317 6.65884 1.76879 6.72497C1.88749 6.79519 2.02266 6.83273 2.16057 6.83379C2.29848 6.83484 2.43421 6.79937 2.55396 6.73097L6.22063 4.6623C6.33888 4.5968 6.43744 4.50082 6.50607 4.38435C6.5747 4.26788 6.61089 4.13516 6.61089 3.99997C6.61089 3.86478 6.5747 3.73206 6.50607 3.61559C6.43744 3.49912 6.33888 3.40314 6.22063 3.33764Z" fill="black"/>
</svg>
