<svg width="12" height="6" viewBox="0 0 12 6" fill="none" xmlns="http://www.w3.org/2000/svg">
<path d="M0.596127 0.598749C0.595671 0.519745 0.610813 0.441428 0.640687 0.368288C0.670561 0.295149 0.71458 0.228625 0.770217 0.172533C0.826022 0.116267 0.892416 0.0716084 0.965569 0.0411318C1.03872 0.0106552 1.11718 -0.00503585 1.19643 -0.00503585C1.27568 -0.00503584 1.35414 0.0106552 1.42729 0.0411318C1.50045 0.0716085 1.56684 0.116267 1.62265 0.172533L5.99886 4.55475L10.3751 0.172533C10.4881 0.059494 10.6414 -0.00401067 10.8013 -0.00401066C10.8804 -0.00401066 10.9588 0.0115798 11.032 0.0418713C11.1051 0.0721629 11.1715 0.116562 11.2275 0.172533C11.2835 0.228505 11.3279 0.294952 11.3582 0.368083C11.3885 0.441213 11.4041 0.519594 11.4041 0.598749C11.4041 0.758611 11.3405 0.911926 11.2275 1.02497L6.42508 5.8274C6.36927 5.88366 6.30288 5.92832 6.22973 5.9588C6.15657 5.98927 6.07811 6.00496 5.99886 6.00496C5.91962 6.00496 5.84115 5.98927 5.768 5.9588C5.69485 5.92832 5.62845 5.88366 5.57265 5.8274L0.770217 1.02496C0.71458 0.968872 0.670561 0.902349 0.640687 0.829209C0.610813 0.75607 0.595671 0.677753 0.596127 0.598749Z" fill="black" fill-opacity="0.6"/>
</svg>
