<svg width="20" height="19" viewBox="0 0 20 19" fill="none" xmlns="http://www.w3.org/2000/svg">
<path fill-rule="evenodd" clip-rule="evenodd" d="M3.00031 4.61579C3.00031 4.19096 3.34471 3.84656 3.76954 3.84656H16.0772C16.5021 3.84656 16.8465 4.19096 16.8465 4.61579C16.8465 5.04062 16.5021 5.38502 16.0772 5.38502H3.76954C3.34471 5.38502 3.00031 5.04062 3.00031 4.61579Z" fill="black"/>
<path fill-rule="evenodd" clip-rule="evenodd" d="M7.61548 9.23102C7.61548 8.80618 7.95988 8.46179 8.38471 8.46179H16.077C16.5019 8.46179 16.8462 8.80618 16.8462 9.23102C16.8462 9.65587 16.5019 10.0003 16.077 10.0003H8.38471C7.95988 10.0003 7.61548 9.65587 7.61548 9.23102Z" fill="black"/>
<path fill-rule="evenodd" clip-rule="evenodd" d="M4.53876 13.8464C4.53876 13.4215 4.88316 13.0771 5.30799 13.0771H16.0772C16.5021 13.0771 16.8464 13.4215 16.8464 13.8464C16.8464 14.2712 16.5021 14.6156 16.0772 14.6156H5.30799C4.88316 14.6156 4.53876 14.2712 4.53876 13.8464Z" fill="black"/>
</svg>
