<svg width="19" height="19" viewBox="0 0 19 19" fill="none" xmlns="http://www.w3.org/2000/svg">
<path fill-rule="evenodd" clip-rule="evenodd" d="M2.3075 4.61579C2.3075 4.19096 2.6519 3.84656 3.07673 3.84656H15.3844C15.8093 3.84656 16.1536 4.19096 16.1536 4.61579C16.1536 5.04062 15.8093 5.38502 15.3844 5.38502H3.07673C2.6519 5.38502 2.3075 5.04062 2.3075 4.61579Z" fill="black"/>
<path fill-rule="evenodd" clip-rule="evenodd" d="M2.30737 9.23102C2.30737 8.80618 2.65177 8.46179 3.0766 8.46179H10.7689C11.1938 8.46179 11.5381 8.80618 11.5381 9.23102C11.5381 9.65587 11.1938 10.0003 10.7689 10.0003H3.0766C2.65177 10.0003 2.30737 9.65587 2.30737 9.23102Z" fill="black"/>
<path fill-rule="evenodd" clip-rule="evenodd" d="M2.30737 13.8464C2.30737 13.4215 2.65177 13.0771 3.0766 13.0771H13.8458C14.2707 13.0771 14.6151 13.4215 14.6151 13.8464C14.6151 14.2712 14.2707 14.6156 13.8458 14.6156H3.0766C2.65177 14.6156 2.30737 14.2712 2.30737 13.8464Z" fill="black"/>
</svg>
