<svg width="16" height="12" viewBox="0 0 16 12" fill="none" xmlns="http://www.w3.org/2000/svg">
<path d="M15.8983 5.68882C15.7554 5.49329 12.3496 0.901123 7.99992 0.901123C3.65019 0.901123 0.244313 5.49329 0.101531 5.68863C-0.0338438 5.87413 -0.0338438 6.12573 0.101531 6.31123C0.244313 6.50676 3.65019 11.0989 7.99992 11.0989C12.3496 11.0989 15.7554 6.50673 15.8983 6.31138C16.0339 6.12592 16.0339 5.87413 15.8983 5.68882ZM7.99992 10.044C4.79588 10.044 2.02085 6.99607 1.19938 5.99966C2.01979 5.00238 4.78901 1.95606 7.99992 1.95606C11.2038 1.95606 13.9787 5.00344 14.8005 6.00038C13.9801 6.99763 11.2108 10.044 7.99992 10.044Z" fill="black"/>
</svg>
