<svg width="16" height="16" viewBox="0 0 16 16" fill="none" xmlns="http://www.w3.org/2000/svg">
<rect width="16" height="16" rx="1" fill="#E6E6E6"/>
<path d="M8.35497 5.395C8.30849 5.34814 8.25319 5.31094 8.19226 5.28555C8.13133 5.26017 8.06598 5.2471 7.99997 5.2471C7.93396 5.2471 7.86861 5.26017 7.80768 5.28555C7.74675 5.31094 7.69145 5.34814 7.64497 5.395L5.14497 7.895C5.05082 7.98915 4.99792 8.11685 4.99792 8.25C4.99792 8.38315 5.05082 8.51085 5.14497 8.605C5.23912 8.69915 5.36682 8.75205 5.49997 8.75205C5.63312 8.75205 5.76082 8.69915 5.85497 8.605L7.49997 6.955V13C7.49997 13.1326 7.55265 13.2598 7.64642 13.3536C7.74019 13.4473 7.86736 13.5 7.99997 13.5C8.13258 13.5 8.25976 13.4473 8.35352 13.3536C8.44729 13.2598 8.49997 13.1326 8.49997 13V6.955L10.145 8.605C10.1915 8.65186 10.2468 8.68906 10.3077 8.71445C10.3686 8.73983 10.434 8.7529 10.5 8.7529C10.566 8.7529 10.6313 8.73983 10.6923 8.71445C10.7532 8.68906 10.8085 8.65186 10.855 8.605C10.9018 8.55852 10.939 8.50322 10.9644 8.44229C10.9898 8.38136 11.0029 8.31601 11.0029 8.25C11.0029 8.18399 10.9898 8.11864 10.9644 8.05771C10.939 7.99678 10.9018 7.94148 10.855 7.895L8.35497 5.395Z" fill="black"/>
<path d="M13 2.5H3C2.86739 2.5 2.74021 2.55268 2.64645 2.64645C2.55268 2.74021 2.5 2.86739 2.5 3C2.5 3.13261 2.55268 3.25979 2.64645 3.35355C2.74021 3.44732 2.86739 3.5 3 3.5H13C13.1326 3.5 13.2598 3.44732 13.3536 3.35355C13.4473 3.25979 13.5 3.13261 13.5 3C13.5 2.86739 13.4473 2.74021 13.3536 2.64645C13.2598 2.55268 13.1326 2.5 13 2.5Z" fill="black"/>
</svg>
