<svg width="16" height="15" viewBox="0 0 16 15" fill="none" xmlns="http://www.w3.org/2000/svg">
<path d="M8.23619 4.9104C8.20522 4.93879 8.16839 4.96132 8.1278 4.9767C8.08722 4.99208 8.04368 5 7.99972 5C7.95575 5 7.91222 4.99208 7.87163 4.9767C7.83104 4.96132 7.79421 4.93879 7.76324 4.9104L6.09795 3.39578C6.03523 3.33873 6 3.26137 6 3.1807C6 3.10003 6.03523 3.02267 6.09795 2.96562C6.16067 2.90858 6.24573 2.87654 6.33442 2.87654C6.42312 2.87654 6.50818 2.90858 6.57089 2.96562L7.66666 3.96527V0.302924C7.66666 0.222583 7.70175 0.145533 7.76421 0.0887241C7.82667 0.0319147 7.91138 0 7.99972 0C8.08805 0 8.17276 0.0319147 8.23522 0.0887241C8.29768 0.145533 8.33277 0.222583 8.33277 0.302924V3.96527L9.42854 2.96562C9.4595 2.93723 9.49634 2.9147 9.53692 2.89932C9.57751 2.88394 9.62104 2.87602 9.66501 2.87602C9.70898 2.87602 9.75251 2.88394 9.7931 2.89932C9.83368 2.9147 9.87052 2.93723 9.90148 2.96562C9.9327 2.99379 9.95748 3.02729 9.97439 3.0642C9.99129 3.10112 10 3.14071 10 3.1807C10 3.22069 9.99129 3.26028 9.97439 3.2972C9.95748 3.33411 9.9327 3.36762 9.90148 3.39578L8.23619 4.9104Z" fill="black"/>
<path d="M13.4545 8H2.54545C2.40079 8 2.26205 7.94732 2.15976 7.85355C2.05747 7.75979 2 7.63261 2 7.5C2 7.36739 2.05747 7.24021 2.15976 7.14645C2.26205 7.05268 2.40079 7 2.54545 7H13.4545C13.5992 7 13.7379 7.05268 13.8402 7.14645C13.9425 7.24021 14 7.36739 14 7.5C14 7.63261 13.9425 7.75979 13.8402 7.85355C13.7379 7.94732 13.5992 8 13.4545 8Z" fill="black"/>
<path d="M8.23619 10.0896C8.20522 10.0612 8.16839 10.0387 8.1278 10.0233C8.08722 10.0079 8.04368 10 7.99972 10C7.95575 10 7.91222 10.0079 7.87163 10.0233C7.83104 10.0387 7.79421 10.0612 7.76324 10.0896L6.09795 11.6042C6.03523 11.6613 6 11.7386 6 11.8193C6 11.9 6.03523 11.9773 6.09795 12.0344C6.16067 12.0914 6.24573 12.1235 6.33442 12.1235C6.42312 12.1235 6.50818 12.0914 6.57089 12.0344L7.66666 11.0347V14.6971C7.66666 14.7774 7.70175 14.8545 7.76421 14.9113C7.82667 14.9681 7.91138 15 7.99972 15C8.08805 15 8.17276 14.9681 8.23522 14.9113C8.29768 14.8545 8.33277 14.7774 8.33277 14.6971V11.0347L9.42854 12.0344C9.4595 12.0628 9.49634 12.0853 9.53692 12.1007C9.57751 12.1161 9.62104 12.124 9.66501 12.124C9.70898 12.124 9.75251 12.1161 9.7931 12.1007C9.83368 12.0853 9.87052 12.0628 9.90148 12.0344C9.9327 12.0062 9.95748 11.9727 9.97439 11.9358C9.99129 11.8989 10 11.8593 10 11.8193C10 11.7793 9.99129 11.7397 9.97439 11.7028C9.95748 11.6659 9.9327 11.6324 9.90148 11.6042L8.23619 10.0896Z" fill="black"/>
</svg>
