<svg width="16" height="16" viewBox="0 0 16 16" fill="none" xmlns="http://www.w3.org/2000/svg">
<path d="M8.00002 10.6666C7.91228 10.6671 7.82531 10.6503 7.74408 10.6171C7.66286 10.584 7.58898 10.5351 7.52669 10.4733L3.52669 6.47329C3.40115 6.34776 3.33063 6.1775 3.33063 5.99996C3.33063 5.82243 3.40115 5.65216 3.52669 5.52663C3.65222 5.40109 3.82249 5.33057 4.00002 5.33057C4.17756 5.33057 4.34782 5.40109 4.47336 5.52663L8.00002 9.05996L11.5267 5.53329C11.6542 5.42408 11.8183 5.36701 11.9861 5.37349C12.1538 5.37997 12.313 5.44952 12.4317 5.56825C12.5505 5.68698 12.62 5.84614 12.6265 6.01393C12.633 6.18171 12.5759 6.34576 12.4667 6.47329L8.46669 10.4733C8.34251 10.5965 8.17492 10.6659 8.00002 10.6666Z" fill="white"/>
</svg>
