<svg width="12" height="12" viewBox="0 0 12 12" fill="none" xmlns="http://www.w3.org/2000/svg">
<g clip-path="url(#clip0_133_2021)">
<path d="M0.0510876 6.38821C-0.163324 5.58801 0.31155 4.7655 1.11175 4.55109C1.91194 4.33668 2.73445 4.81155 2.94886 5.61175C3.16327 6.41195 2.6884 7.23445 1.8882 7.44886C1.08803 7.66329 0.26552 7.18841 0.0510876 6.38821Z" fill="black"/>
<path d="M4.55115 6.38821C4.33674 5.58801 4.81161 4.7655 5.61181 4.55109C6.412 4.33668 7.23451 4.81155 7.44892 5.61175C7.66333 6.41195 7.18846 7.23445 6.38826 7.44886C5.58809 7.66329 4.76558 7.18841 4.55115 6.38821Z" fill="black"/>
<path d="M9.05109 6.38821C8.83668 5.58801 9.31155 4.7655 10.1117 4.55109C10.9119 4.33668 11.7344 4.81155 11.9489 5.61175C12.1633 6.41195 11.6884 7.23445 10.8882 7.44886C10.088 7.66329 9.26552 7.18841 9.05109 6.38821Z" fill="black"/>
</g>
<defs>
<clipPath id="clip0_133_2021">
<rect width="12" height="12" fill="white" transform="matrix(0 -1 1 0 0 12)"/>
</clipPath>
</defs>
</svg>
