<svg width="21" height="22" viewBox="0 0 21 22" fill="none" xmlns="http://www.w3.org/2000/svg">
<path d="M10.5003 11.7508C12.008 11.7508 13.2303 10.5285 13.2303 9.02077C13.2303 7.51303 12.008 6.29077 10.5003 6.29077C8.99253 6.29077 7.77026 7.51303 7.77026 9.02077C7.77026 10.5285 8.99253 11.7508 10.5003 11.7508Z" stroke="black" stroke-width="1.5"/>
<path d="M3.16773 7.42924C4.89148 -0.14826 16.1177 -0.13951 17.8327 7.43799C18.3835 9.87113 17.8044 12.0998 16.7697 14.0005C15.9142 15.5721 14.7473 16.9195 13.6502 17.973C10.4975 21.0005 11.0836 21.5795 7.34148 17.973C4.92648 15.6455 2.16148 11.8742 3.16773 7.42924Z" stroke="black" stroke-width="1.5"/>
</svg>
