<svg width="14" height="14" viewBox="0 0 14 14" fill="none" xmlns="http://www.w3.org/2000/svg">
<g clip-path="url(#clip0_98_993)">
<path d="M9.48151 4.51848C8.85188 3.88885 7.96299 3.48145 7.00003 3.48145C6.03706 3.48145 5.14817 3.87033 4.51854 4.51848C3.88891 5.14811 3.48151 6.037 3.48151 6.99996C3.48151 7.96293 3.88891 8.85182 4.51854 9.48145C5.14817 10.1111 6.03706 10.5185 7.00003 10.5185C7.96299 10.5185 8.85188 10.1296 9.48151 9.48145C10.1111 8.85182 10.5185 7.96293 10.5185 6.99996C10.5185 6.037 10.1297 5.14811 9.48151 4.51848ZM8.81484 8.81478C8.35188 9.27774 7.70373 9.55552 7.00003 9.55552C6.29632 9.55552 5.64817 9.27774 5.18521 8.81478C4.72225 8.35182 4.44447 7.70367 4.44447 6.99996C4.44447 6.29626 4.72225 5.64811 5.18521 5.18515C5.64817 4.72219 6.29632 4.44441 7.00003 4.44441C7.70373 4.44441 8.35188 4.72219 8.81484 5.18515C9.2778 5.64811 9.55558 6.29626 9.55558 6.99996C9.55558 7.70367 9.2778 8.35182 8.81484 8.81478Z" fill="black"/>
<path d="M13.5185 6.51855H12.0926C11.8333 6.51855 11.6111 6.74078 11.6111 7.00004C11.6111 7.2593 11.8333 7.48152 12.0926 7.48152H13.5185C13.7778 7.48152 14 7.2593 14 7.00004C14 6.74078 13.7778 6.51855 13.5185 6.51855Z" fill="black"/>
<path d="M6.99997 11.6111C6.74072 11.6111 6.51849 11.8333 6.51849 12.0926V13.5185C6.51849 13.7778 6.74072 14 6.99997 14C7.25923 14 7.48146 13.7778 7.48146 13.5185V12.0926C7.48146 11.8333 7.25923 11.6111 6.99997 11.6111Z" fill="black"/>
<path d="M11.9444 11.2778L10.9259 10.2593C10.7592 10.0741 10.4444 10.0741 10.2593 10.2593C10.0741 10.4444 10.0741 10.7407 10.2593 10.9259L11.2778 11.9444C11.463 12.1296 11.7593 12.1296 11.9444 11.9444C12.1296 11.7593 12.1296 11.463 11.9444 11.2778Z" fill="black"/>
<path d="M6.99997 0C6.74072 0 6.51849 0.222222 6.51849 0.481481V1.90741C6.51849 2.16667 6.74072 2.38889 6.99997 2.38889C7.25923 2.38889 7.48146 2.16667 7.48146 1.90741V0.481481C7.48146 0.222222 7.25923 0 6.99997 0Z" fill="black"/>
<path d="M11.963 2.05551C11.7778 1.87033 11.4815 1.87033 11.2963 2.05551L10.2778 3.07403C10.0926 3.25922 10.0926 3.55552 10.2778 3.7407C10.4445 3.92589 10.7593 3.92589 10.9445 3.7407L11.963 2.72218C12.1482 2.537 12.1482 2.2407 11.963 2.05551Z" fill="black"/>
<path d="M1.90741 6.51855H0.481481C0.222222 6.51855 0 6.74078 0 7.00004C0 7.2593 0.203704 7.48152 0.481481 7.48152H1.90741C2.16667 7.48152 2.38889 7.2593 2.38889 7.00004C2.38889 6.74078 2.16667 6.51855 1.90741 6.51855Z" fill="black"/>
<path d="M3.72221 10.2593C3.55554 10.0741 3.24073 10.0741 3.05554 10.2593L2.03702 11.2778C1.85184 11.463 1.85184 11.7593 2.03702 11.9444C2.22221 12.1296 2.5185 12.1296 2.70369 11.9444L3.72221 10.9259C3.90739 10.7407 3.90739 10.4444 3.72221 10.2593Z" fill="black"/>
<path d="M3.72221 3.07403L2.70369 2.05551C2.5185 1.87033 2.22221 1.87033 2.03702 2.05551C1.85184 2.2407 1.85184 2.537 2.03702 2.72218L3.05554 3.7407C3.24073 3.92589 3.53702 3.92589 3.72221 3.7407C3.90739 3.55552 3.90739 3.25922 3.72221 3.07403Z" fill="black"/>
</g>
<defs>
<clipPath id="clip0_98_993">
<rect width="14" height="14" fill="white"/>
</clipPath>
</defs>
</svg>
