<svg width="20" height="19" viewBox="0 0 20 19" fill="none" xmlns="http://www.w3.org/2000/svg">
<path fill-rule="evenodd" clip-rule="evenodd" d="M3.23083 4.61579C3.23083 4.19096 3.57523 3.84656 4.00007 3.84656H16.3078C16.7326 3.84656 17.077 4.19096 17.077 4.61579C17.077 5.04062 16.7326 5.38502 16.3078 5.38502H4.00007C3.57523 5.38502 3.23083 5.04062 3.23083 4.61579Z" fill="black"/>
<path fill-rule="evenodd" clip-rule="evenodd" d="M5.53864 9.23102C5.53864 8.80618 5.88304 8.46179 6.30787 8.46179H14.0002C14.425 8.46179 14.7694 8.80618 14.7694 9.23102C14.7694 9.65587 14.425 10.0003 14.0002 10.0003H6.30787C5.88304 10.0003 5.53864 9.65587 5.53864 9.23102Z" fill="black"/>
<path fill-rule="evenodd" clip-rule="evenodd" d="M4 13.8464C4 13.4215 4.3444 13.0771 4.76923 13.0771H15.5385C15.9633 13.0771 16.3077 13.4215 16.3077 13.8464C16.3077 14.2712 15.9633 14.6156 15.5385 14.6156H4.76923C4.3444 14.6156 4 14.2712 4 13.8464Z" fill="black"/>
</svg>
